<svg version="1.2" xmlns="http://www.w3.org/2000/svg" viewBox="0 0 120 800" width="120" height="800">
	<style>
		.s0 { fill: #0100af } 
		.s1 { fill: #ffffff } 
	</style>
	<g id="Layer 1">
		<g id="&lt;Group&gt; copy">
			<path id="&lt;Path&gt;" class="s0" d="m46.04 20.07c32.2 8.73 67.58 31.23 52.15 69.37-11.08 25.55-38.13 37.84-56.89 56.55-7.91 7.92-13.7 17.59-10.52 28.89 3.29 11.4 11.75 20.59 19.86 29.29 19.63 20.87 48.91 42.64 56.61 71.36 4.4 16.46-0.42 33.68-12.16 45.88-15 16.11-36.61 23.02-53.09 36.45-3.04 2.6-5.72 5.53-7.43 8.92-3.29 6.77-2.27 14.13 1.16 20.91 4.18 8.1 11.21 15.17 17.87 22.03 7.74 7.93 15.75 15.76 22.2 25.32 11.79 17.41 13.6 34.74 6.79 54.67-5.51 16.4-16.08 30.31-26.71 43.41-6.33 7.88-12.9 15.69-17.7 24.24-3.3 5.98-5.41 11.78-5.72 18.34-0.09 2.02 0.03 4.2 0.31 6.2 1.31 8.47 7.23 14.43 14.06 19.75 7.98 6.07 17.16 10.96 26.06 16.13 9.92 5.9 20.93 12.04 27.27 22.48 3.82 6.33 4.61 14.51 1.9 21.42-10.82 31.21-91.7 39.56-73.31 68.84 11.39 17.51 46.24 32.06 65.51 40.31-15.29-4.48-30.49-9.67-44.87-16.72-9.68-4.89-19.87-10.74-26.52-19.59-3.81-5.09-5.86-11.74-4.27-18.11 2.98-11.64 14.34-19.02 23.68-25.01 13.17-8.3 27.6-14.6 39.41-24.66 30.35-27-36.73-34.86-58.57-63.55-6.55-8.11-9.36-17.49-9.26-27.9 0.09-26.54 21.56-47.11 35.44-67.01 8.09-11.47 14.9-24.03 16.02-38.09 0.53-8.51-2.36-16.01-7.25-23.16-16.5-23.57-48.97-41.38-46.73-74.37 0.95-16.11 11.46-27.84 24.21-36.32 14.64-10.12 32.32-16.45 44.87-28.85 9.26-9.25 11.11-21.45 6.07-33.42-14.03-33.1-62.19-60.4-70.32-95.74-3.72-16.64 3.87-30.87 16.08-41.77 15.74-14.31 35.42-23.23 49.98-38.65 5.2-5.57 9.42-12.09 11.41-19.47 8.28-29.69-24.15-48.98-47.6-58.37z"/>
		</g>
		<g id="&lt;Group&gt; copy 2">
			<path id="&lt;Path&gt;" class="s1" d="m45.62 20.07c21.09 6.82 48.33 19.17 52.59 43.45 2.05 13.37-3.78 26.73-12.59 36.58-10.57 11.99-24.29 20.55-36.87 30.18-17.82 13.39-33 29.39-22.03 52.7 16.62 36.73 87.96 72.31 70.02 117.64-10.94 24.89-42.35 31.96-61.65 48.66-5.94 5.07-10.79 11.68-12.07 19.48-1.33 7.74 0.35 15.74 4.05 22.63 10.29 18.67 29.16 30.66 40.81 48.42 6.83 9.95 10.35 22.4 8.08 34.4-1.5 9.24-4.99 18.08-9.59 26.19-7.83 13.91-18.71 25.8-28.07 38.58-9.4 12.69-17.02 27.42-13.87 43.64 1.96 10.48 9.84 18.54 18.23 24.58 8.57 6.19 18.06 10.99 27.29 16.14 4.63 2.58 9.24 5.24 13.58 8.35 4.31 3.12 8.5 6.71 11.14 11.43 5.94 10.92-0.29 21.07-9.15 28.05-12.56 9.88-27.54 15.95-41.21 23.99-6.75 4.04-13.66 8.33-18.4 14.71-7.32 9.86-2.44 20.13 5.54 27.89 5.67 5.56 12.36 9.97 19.23 13.91 13.84 7.83 28.64 13.8 43.58 19.16-10-3.49-19.9-7.31-29.54-11.73-13.53-6.39-29.82-14.75-38.72-27.12-11.98-17.29 4.09-29.23 17.98-37.38 13.64-8.11 28.55-14.17 41.03-24.05 2.04-1.67 3.97-3.46 5.67-5.45 3.39-3.91 5.77-8.93 5.41-14.18-0.83-12.91-16.6-20.95-26.62-26.72-16.97-9.67-41.89-20.21-46.18-41.36-3.23-16.58 4.44-31.61 14.03-44.57 9.38-12.84 20.15-24.6 27.95-38.49 4.53-8 7.95-16.68 9.42-25.78 2.19-11.71-1.24-23.74-7.91-33.45-13.32-20.88-43.55-38.04-45.45-63.93-0.87-11.6 4.23-20.94 12.91-28.32 16.19-13.73 37.58-20.08 52.62-35.27 11.82-11.76 14.66-28.08 8.14-43.35-6.19-14.65-17.4-26.43-28.27-37.78-7.38-7.59-15-14.96-22.2-22.76-7.16-7.84-14.14-16.07-18.67-25.77-4.75-10.09-5.24-20.97 0.33-30.94 5.23-9.39 13.71-16.32 22.11-22.75 8.46-6.41 17.26-12.32 25.42-19.06 12.13-9.84 23.29-22.93 24.37-39.16 1.96-28.71-29.24-43.79-52.47-51.39z"/>
		</g>
	</g>
</svg>