<svg width="230" height="2200" viewBox="0 0 230 2200" fill="none" xmlns="http://www.w3.org/2000/svg">
<path d="M71.4018 0C133.202 19.98 212.972 56.14 225.462 127.27C231.452 166.44 214.402 205.57 188.602 234.4C157.632 269.54 117.442 294.62 80.6018 322.82C28.3718 362.04 -16.0582 408.93 16.0518 477.19C64.7318 584.78 273.702 689.01 221.152 821.79C189.122 894.68 97.1218 915.42 40.5618 964.33C23.1818 979.18 8.96177 998.55 5.23177 1021.4C1.32177 1044.05 6.24177 1067.49 17.0818 1087.67C47.2118 1142.36 102.492 1177.48 136.632 1229.52C156.612 1258.64 166.922 1295.13 160.292 1330.28C155.912 1357.34 145.672 1383.24 132.202 1407C109.272 1447.75 77.3818 1482.55 49.9618 1520C22.4218 1557.16 0.121766 1600.31 9.34177 1647.83C15.0818 1678.54 38.1618 1702.13 62.7318 1719.82C87.8518 1737.96 115.632 1752.01 142.672 1767.1C156.232 1774.68 169.732 1782.47 182.452 1791.56C195.102 1800.72 207.352 1811.21 215.092 1825.06C232.512 1857.03 214.242 1886.76 188.282 1907.21C151.502 1936.17 107.612 1953.93 67.5818 1977.49C47.8118 1989.3 27.5818 2001.87 13.6718 2020.57C-7.76823 2049.44 6.53177 2079.53 29.9218 2102.27C46.5218 2118.57 66.1218 2131.47 86.2418 2143.02C126.782 2165.95 170.132 2183.45 213.912 2199.14C184.612 2188.91 155.622 2177.72 127.382 2164.79C87.7318 2146.07 40.0218 2121.58 13.9418 2085.34C-21.1382 2034.7 25.9318 1999.73 66.6218 1975.85C106.572 1952.1 150.242 1934.34 186.812 1905.39C192.782 1900.52 198.432 1895.25 203.412 1889.42C213.352 1877.98 220.332 1863.27 219.262 1847.89C216.832 1810.1 170.652 1786.55 141.292 1769.62C91.5918 1741.29 18.5818 1710.43 6.03176 1648.47C-3.42824 1599.91 19.0318 1555.87 47.1118 1517.91C74.5918 1480.29 106.152 1445.84 129.002 1405.18C142.262 1381.72 152.282 1356.31 156.572 1329.66C162.992 1295.36 152.942 1260.12 133.402 1231.67C94.4018 1170.51 5.84177 1120.25 0.281767 1044.4C-2.26823 1010.44 12.6618 983.07 38.0918 961.46C85.5118 921.24 148.172 902.63 192.242 858.14C226.852 823.68 235.162 775.88 216.082 731.14C197.942 688.24 165.112 653.72 133.272 620.5C111.662 598.27 89.3318 576.67 68.2318 553.81C47.2818 530.86 26.8218 506.74 13.5618 478.34C-0.358232 448.78 -1.79823 416.9 14.5018 387.71C29.8318 360.19 54.6818 339.89 79.2618 321.06C104.042 302.31 129.842 284.99 153.732 265.24C189.262 236.41 221.952 198.05 225.122 150.53C230.852 66.43 139.462 22.26 71.4118 0H71.4018Z" fill="white"/>
</svg>
